<svg width="9" height="12" viewBox="0 0 9 12" fill="none" xmlns="http://www.w3.org/2000/svg">
<g id="Group 127">
<path id="Vector" d="M4.19355 0C1.88123 0 0 1.89253 0 4.21875C0 5.0047 0.21641 5.77172 0.62598 6.43716L3.95484 11.8338C4.01861 11.9372 4.13095 12 4.25177 12C4.2527 12 4.25361 12 4.25454 12C4.37641 11.999 4.48898 11.9343 4.55158 11.8291L7.7956 6.38016C8.18257 5.72878 8.3871 4.98138 8.3871 4.21875C8.3871 1.89253 6.50587 0 4.19355 0ZM7.1958 6.01917L4.24648 10.9731L1.22002 6.0667C0.879108 5.51283 0.694265 4.87383 0.694265 4.21875C0.694265 2.28023 2.26661 0.698437 4.19355 0.698437C6.12048 0.698437 7.6905 2.28023 7.6905 4.21875C7.6905 4.8544 7.51784 5.47706 7.1958 6.01917Z" fill="white"/>
<g id="Group">
<g id="Group_2">
<path id="Vector_2" d="M4.21881 2.10938C3.0557 2.10938 2.10944 3.05564 2.10944 4.21875C2.10944 5.37443 3.0403 6.32812 4.21881 6.32812C5.41185 6.32812 6.32819 5.36173 6.32819 4.21875C6.32819 3.05564 5.38192 2.10938 4.21881 2.10938ZM4.21881 5.62969C3.43935 5.62969 2.80787 4.9961 2.80787 4.21875C2.80787 3.44334 3.4434 2.80781 4.21881 2.80781C4.99422 2.80781 5.6274 3.44334 5.6274 4.21875C5.6274 4.98476 5.01062 5.62969 4.21881 5.62969Z" fill="white"/>
</g>
</g>
</g>
</svg>
