<svg width="8" height="9" viewBox="0 0 8 9" fill="none" xmlns="http://www.w3.org/2000/svg">
<path id="Vector" d="M5.7496 9C5.49136 9 5.2353 8.94864 4.98492 8.8463C3.88187 8.39551 2.858 7.6613 2.02397 6.72304C1.18993 5.78478 0.537302 4.63291 0.136613 3.39198C0.00785227 2.99319 -0.0301464 2.58152 0.0237111 2.16838C0.0741624 1.7814 0.207408 1.40572 0.409056 1.08194C0.611596 0.756742 0.881617 0.486261 1.18992 0.299747C1.51869 0.100859 1.87753 0 2.25652 0C2.37439 0 2.47626 0.0926505 2.50096 0.222301L2.89336 2.28236C2.91112 2.37564 2.88564 2.4727 2.82569 2.54016L2.1552 3.29445C2.7877 4.70918 3.81404 5.8638 5.07159 6.57537L5.74207 5.82107C5.80203 5.75363 5.88833 5.725 5.97123 5.74495L7.8024 6.18638C7.91766 6.21417 8 6.32878 8 6.46138C8 6.88774 7.91035 7.29146 7.73354 7.66132C7.56775 8.00816 7.32732 8.31193 7.03825 8.53979C6.75047 8.76664 6.41653 8.91654 6.07252 8.9733C5.96473 8.99111 5.85695 8.99998 5.7496 9ZM2.05678 0.574781C1.55687 0.636865 1.11317 0.931638 0.818526 1.40473C0.487194 1.93671 0.409931 2.59103 0.606549 3.19995C1.3769 5.58566 3.03498 7.45099 5.15562 8.31763C5.69686 8.53882 6.27848 8.45192 6.75137 8.07915C7.17191 7.74768 7.43393 7.24852 7.48911 6.68613L5.99946 6.32702L5.29924 7.11477C5.22473 7.1986 5.11151 7.22087 5.01617 7.17046C3.52888 6.38439 2.32499 5.03002 1.62626 3.35683C1.58147 3.24955 1.60125 3.12219 1.67576 3.03838L2.37599 2.25063L2.05678 0.574781Z" fill="white"/>
</svg>
